<?xml version="1.0" encoding="utf-8"?>
<!-- Generator: Adobe Illustrator 21.0.2, SVG Export Plug-In . SVG Version: 6.00 Build 0)  -->
<svg version="1.1" id="Layer_1" xmlns="http://www.w3.org/2000/svg" xmlns:xlink="http://www.w3.org/1999/xlink" x="0px" y="0px"
	 viewBox="0 0 156 49" style="enable-background:new 0 0 156 49;" xml:space="preserve">
<style type="text/css">
	.st0{clip-path:url(#SVGID_2_);fill:#6AAE22;}
	.st1{fill:none;enable-background:new    ;}
</style>
<g>
	<defs>
		<rect id="SVGID_1_" width="156.1" height="49"/>
	</defs>
	<clipPath id="SVGID_2_">
		<use xlink:href="#SVGID_1_"  style="overflow:visible;"/>
	</clipPath>
	<path class="st0" d="M155.7,18.1c-0.9-3.4-7.9-11.2-13-17.5c-0.1-0.1-0.4-0.6-1-0.6c-0.5,0-0.9,0.5-0.7,0.9
		c0.2,0.4,5.1,10.6,4.2,13.9c-0.9,3.4-5.4,2.7-6.1,2.7c-0.4,0-0.1,0.3,0.3,0.7c2.5,2.2,4.1,5.3,4.1,9.3v3c0,0.1,0,0.1,0.1,0.1
		C149.3,30.1,158,26.6,155.7,18.1"/>
	<path class="st0" d="M133.6,37.8c0,2.9-3.9,4.5-6.4,4.5c-2.7,0-6.5-1.6-6.5-4.5V27.6c0-2.9,3.8-4.2,6.5-4.2c2.5,0,6.4,1.4,6.4,4.2
		V37.8z M127.2,17c-6,0.1-13,3.5-13,10.5v10.7c0,7.1,7,10.5,13,10.5c5.9-0.1,12.9-3.4,12.9-10.5V27.6
		C140.1,20.6,133.1,17.1,127.2,17"/>
	<path class="st0" d="M88.4,37.8c0,2.9-3.9,4.5-6.4,4.5c-2.7,0-6.5-1.6-6.5-4.5V27.6c0-2.9,3.8-4.2,6.5-4.2c2.5,0,6.4,1.4,6.4,4.2
		V37.8z M81.9,17c-6,0.1-13,3.5-13,10.5v10.7c0,7.1,7,10.5,13,10.5c5.9-0.1,12.9-3.4,12.9-10.5V27.6C94.8,20.6,87.8,17.1,81.9,17"/>
	<path class="st0" d="M16.7,18.2c0.4-0.4,0.7-0.7,0.3-0.7c-0.7,0-5.2,0.7-6.1-2.7c-0.9-3.4,4-13.5,4.2-13.9C15.2,0.5,14.9,0,14.3,0
		c-0.5,0-0.9,0.6-1,0.6c-5,6.3-12.1,14.1-13,17.5c-2.3,8.5,6.6,12,12.2,12.6c0.1,0,0.1-0.1,0.1-0.1v-3
		C12.7,23.5,14.2,20.4,16.7,18.2"/>
	<path class="st0" d="M68.5,19.4c-4.8-1.3-8.3-1.8-13.5-1.8c-5.1,0-8.7,0.5-13.5,1.8c-0.2,0.1-0.3,0.3-0.2,0.4
		c1.6,1.4,2.3,3.2,2.6,5.2c2.6-0.6,5-1,7.8-1.2v24.7c0,0.1,0.1,0.1,0.2,0.1h6.2c0.1,0,0.2,0,0.2-0.1V23.8c2.7,0.2,4.9,0.5,7.5,1.2
		c0.4-2,1.2-3.9,2.9-5.2C68.7,19.6,68.6,19.4,68.5,19.4"/>
	<path class="st0" d="M114.4,17.3c-0.5-0.1-1.8-0.3-3-0.2c-5.9,0.2-12.6,3.7-12.6,10.5v0.6v10.1v10.4c0,0.1,0.1,0.1,0.2,0.1h6.2
		c0.1,0,0.2,0,0.2-0.1v-0.6h0V27.6c0-2.3,2.8-3.6,5.1-4.1c0.7-2.2,2-3.9,4-5.5C114.8,17.7,114.7,17.3,114.4,17.3"/>
	<path class="st0" d="M34.6,29.4c0,0.1,0,0.1-0.1,0.2c0,0.1-0.1,0.1-0.2,0.1H22.5v-2.1c0-2.9,3.5-4.3,6.2-4.3c2.6,0,5.9,1.4,5.9,4.3
		L34.6,29.4z M28.7,16.8c-6.1,0.1-12.8,3.6-12.8,10.7v10.8c0,7.2,6.7,10.6,12.8,10.7c4.4,0,9.3-1.8,11.7-5.7c0.1-0.1,0-0.3-0.1-0.4
		c-2.1-1.2-3.3-1.9-5.4-3c-0.1,0-0.1,0-0.2,0.1c-1.1,1.9-4,2.9-6,2.9c-2.7,0-6.2-1.7-6.2-4.6v-3.2h16.9c0.9,0,1.6-0.7,1.6-1.6v-5.9
		C41,20.4,34.7,16.9,28.7,16.8"/>
</g>
<path class="st1" d="z"/>
</svg>
